<?xml version="1.0" standalone="no"?>
<!DOCTYPE svg PUBLIC "-//W3C//DTD SVG 20010904//EN"
 "http://www.w3.org/TR/2001/REC-SVG-20010904/DTD/svg10.dtd">
<svg version="1.0" xmlns="http://www.w3.org/2000/svg"
 width="729.000000pt" height="729.000000pt" viewBox="0 0 729.000000 729.000000"
 preserveAspectRatio="xMidYMid meet">
<metadata>
Created by potrace 1.14, written by Peter Selinger 2001-2017
</metadata>
<g transform="translate(0.000000,729.000000) scale(0.100000,-0.100000)"
fill="#000000" stroke="none">
<path d="M3817 7206 c-134 -49 -172 -225 -72 -330 32 -32 78 -54 131 -61 106
-13 204 -64 204 -105 0 -10 -14 -24 -35 -35 -49 -23 -69 -26 -155 -24 -41 1
-102 2 -135 2 -186 3 -328 -44 -444 -149 -61 -56 -124 -160 -136 -229 -27
-151 19 -292 134 -405 109 -108 252 -167 466 -195 73 -9 156 -50 179 -88 25
-42 -85 -82 -203 -74 -59 4 -79 10 -123 39 -236 155 -474 276 -673 342 -130
43 -198 54 -307 53 -90 -2 -110 -6 -158 -29 -30 -15 -80 -51 -111 -81 -46 -44
-64 -74 -109 -173 -29 -65 -63 -141 -76 -169 -12 -27 -291 -655 -619 -1395
-328 -740 -605 -1363 -614 -1385 -10 -22 -25 -56 -34 -75 -104 -235 -392 -884
-406 -915 -10 -22 -60 -134 -111 -250 -51 -115 -142 -320 -203 -455 -194 -433
-180 -397 -174 -459 5 -64 25 -111 80 -194 111 -168 338 -321 451 -303 28 5
277 112 776 334 19 9 37 16 40 17 3 1 28 12 55 25 28 12 192 85 365 162 173
77 333 148 355 158 22 10 225 100 450 200 226 100 438 195 473 211 35 16 65
29 68 29 2 0 38 16 80 35 41 19 77 35 79 35 2 0 43 18 90 40 47 22 88 40 91
40 2 0 39 16 81 36 43 19 92 41 108 49 17 7 53 23 80 35 28 12 88 39 135 60
47 21 105 47 130 58 25 11 146 65 270 120 124 55 255 114 293 131 37 17 69 31
71 31 2 0 37 15 78 34 40 19 168 75 283 126 116 50 243 107 283 126 41 19 76
34 79 34 2 0 42 18 89 40 47 22 87 40 90 40 2 0 50 22 107 48 108 52 151 89
202 176 114 194 32 527 -247 1006 -27 47 -64 108 -83 137 l-34 52 52 19 c94
35 329 104 402 118 11 2 52 10 90 18 39 8 92 18 119 21 27 3 52 8 55 10 30 18
569 27 706 12 39 -4 94 -10 122 -14 134 -15 237 70 237 197 0 118 -73 191
-206 206 -29 3 -59 7 -65 9 -25 8 -250 19 -383 19 -129 0 -311 -9 -395 -19
-68 -9 -204 -30 -255 -40 -14 -3 -50 -10 -80 -16 -30 -5 -68 -14 -85 -19 -16
-5 -42 -11 -57 -14 -65 -11 -330 -97 -442 -143 -32 -13 -62 -21 -66 -16 -4 4
-38 46 -76 93 -74 92 -98 121 -129 156 -11 12 -47 53 -80 91 -178 204 -476
497 -705 694 -72 62 -130 115 -130 119 0 4 10 12 23 17 72 34 165 155 194 252
28 98 16 216 -32 311 -33 66 -125 162 -193 204 -95 57 -205 92 -347 111 -105
13 -214 71 -203 107 2 7 24 23 49 36 48 23 72 25 286 18 88 -3 219 23 293 56
352 162 383 587 58 798 -65 43 -171 87 -226 96 -20 3 -40 8 -45 11 -20 12
-135 12 -170 -1z"/>
<path d="M910 7122 c-68 -9 -155 -46 -220 -92 -168 -119 -272 -376 -272 -673
-1 -94 2 -113 24 -155 14 -27 42 -59 67 -77 37 -26 51 -30 111 -30 60 0 74 4
112 30 66 46 85 96 92 235 5 122 20 218 36 234 6 6 10 17 10 25 0 23 49 81 78
93 46 17 109 16 151 -3 80 -36 137 -154 165 -344 13 -86 15 -512 2 -575 -2
-14 -7 -56 -11 -95 -3 -38 -8 -79 -11 -90 -2 -11 -6 -41 -8 -66 -6 -53 -51
-332 -66 -399 -5 -25 -12 -60 -15 -77 -3 -18 -12 -63 -21 -100 -9 -38 -18 -79
-21 -93 -2 -14 -22 -95 -44 -180 -22 -85 -42 -164 -44 -175 -3 -11 -14 -49
-25 -85 -37 -121 -33 -180 17 -248 53 -72 166 -96 249 -54 67 34 89 74 138
249 46 161 120 454 129 508 3 17 10 50 16 75 5 25 12 59 15 75 3 17 16 89 30
160 13 72 27 153 30 180 4 28 9 57 11 65 2 8 6 38 9 65 4 28 8 66 11 85 26
175 37 550 21 712 -32 328 -102 515 -245 658 -70 70 -169 132 -228 145 -10 2
-37 8 -61 13 -40 9 -179 12 -232 4z"/>
<path d="M5648 6935 c-2 -2 -23 -6 -47 -9 -115 -15 -236 -107 -291 -219 -115
-235 19 -511 277 -570 133 -31 268 10 370 111 79 78 117 173 115 290 -2 209
-161 374 -379 395 -24 2 -44 3 -45 2z"/>
<path d="M6470 5903 c-62 -22 -150 -113 -173 -178 -22 -63 -22 -138 0 -206 23
-72 107 -158 177 -182 172 -59 350 34 398 208 41 146 -45 308 -192 360 -54 19
-152 18 -210 -2z"/>
<path d="M5062 5701 c-93 -32 -157 -101 -186 -201 -55 -191 88 -381 289 -382
171 -2 299 128 299 302 0 59 -5 85 -24 124 -69 143 -228 209 -378 157z"/>
<path d="M5901 5104 c-141 -37 -225 -146 -225 -294 -1 -92 23 -147 89 -213
146 -146 386 -102 482 87 32 64 36 177 8 241 -62 142 -210 217 -354 179z"/>
<path d="M352 4098 c-113 -17 -241 -107 -291 -206 -93 -182 -44 -398 118 -516
200 -147 488 -77 598 146 78 156 44 348 -82 467 -99 93 -210 129 -343 109z"/>
<path d="M6466 3675 c-95 -39 -157 -114 -181 -219 -13 -58 -1 -148 28 -202 27
-51 85 -104 144 -131 202 -93 438 67 425 287 -12 208 -224 343 -416 265z"/>
<path d="M6371 2748 c-200 -21 -288 -77 -306 -195 -9 -64 11 -122 59 -168 58
-57 110 -73 189 -55 116 25 193 23 232 -6 18 -14 19 -17 5 -41 -23 -42 -86
-79 -189 -114 -251 -85 -401 -209 -461 -385 -57 -163 -15 -332 112 -449 100
-93 225 -139 378 -138 96 1 120 4 242 33 92 22 181 21 218 -2 25 -16 25 -29
-1 -62 -30 -38 -91 -70 -197 -106 -192 -63 -315 -150 -398 -281 -200 -318 49
-693 454 -683 250 5 373 79 375 225 1 140 -122 230 -266 193 -63 -16 -189 -13
-210 5 -54 44 33 116 207 170 194 60 339 176 414 331 33 68 36 84 39 171 2 75
-2 107 -17 149 -55 152 -189 263 -355 296 -11 2 -31 6 -45 9 -71 15 -226 1
-355 -32 -11 -3 -51 -7 -90 -10 -112 -6 -154 31 -99 88 32 33 81 57 210 103
131 47 215 98 295 176 211 206 200 511 -24 676 -112 83 -256 118 -416 102z"/>
<path d="M4693 1265 c-105 -24 -199 -114 -223 -216 -45 -186 80 -362 267 -377
149 -12 279 82 316 228 8 30 13 66 11 80 -12 75 -17 97 -35 132 -60 118 -202
183 -336 153z"/>
</g>
</svg>
